<svg id="Layer_1" height="512" viewBox="0 0 24 24" width="512" xmlns="http://www.w3.org/2000/svg" data-name="Layer 1"><path opacity="0.52" d="m10 14h-3a1 1 0 1 1 0-2h3a1 1 0 1 1 0 2zm-3-6a1 1 0 1 0 0 2h6a1 1 0 1 0 0-2zm1.1439 11.5352a8.96 8.96 0 0 1 -1.9474-.9288 1.0021 1.0021 0 0 0 -.9258-.0771l-1.626.6885.5342-1.6133a.9987.9987 0 0 0 -.1709-.9429 8.9991 8.9991 0 1 1 15.8659-7.1723 1 1 0 0 0 1.9727-.334 11.0007 11.0007 0 1 0 -19.7332 8.3227l-1.0626 3.2075a1 1 0 0 0 1.3392 1.2354l3.1916-1.3516a10.9874 10.9874 0 0 0 1.9239.8614 1 1 0 1 0 .6387-1.8955z" fill="#414042"/><path d="m23.5654 18.8105-3.8029-7.0917a3.0783 3.0783 0 0 0 -5.5236 0l-3.8029 7.0912a3.6837 3.6837 0 0 0 .082 3.6171 3.1252 3.1252 0 0 0 2.6798 1.5729h7.6058a3.1252 3.1252 0 0 0 2.68-1.5728 3.683 3.683 0 0 0 .0818-3.6167zm-5.5646-3.8105v3a1 1 0 0 1 -2 0v-3a1 1 0 0 1 2 0zm0 6a1 1 0 1 1 -1-1 1 1 0 0 1 1 1z" fill="#f9411b"/></svg>