<?xml version="1.0" encoding="UTF-8"?>
<svg version="1.1" xmlns="http://www.w3.org/2000/svg" width="48" height="48">
<path opacity="0.32" d="M0 0 C2 2 2 2 2.1953125 4.8203125 C2.16050781 6.45613281 2.16050781 6.45613281 2.125 8.125 C2.10695313 9.22070312 2.08890625 10.31640625 2.0703125 11.4453125 C2.04710937 12.28835937 2.02390625 13.13140625 2 14 C2.78375 14.2475 3.5675 14.495 4.375 14.75 C7 16 7 16 8.2734375 17.828125 C9.05776172 20.17266406 9.40784086 22.28886306 9.625 24.75 C9.69976563 25.54921875 9.77453125 26.3484375 9.8515625 27.171875 C9.90054687 27.77515625 9.94953125 28.3784375 10 29 C8.35 29.33 6.7 29.66 5 30 C4.86722656 29.36191406 4.73445312 28.72382812 4.59765625 28.06640625 C4.42105469 27.24011719 4.24445312 26.41382812 4.0625 25.5625 C3.88847656 24.73878906 3.71445313 23.91507813 3.53515625 23.06640625 C3.19247006 21.02338796 3.19247006 21.02338796 2 20 C-0.28177055 19.50881652 -2.57269299 19.10112965 -4.87109375 18.6953125 C-7 18 -7 18 -9 15 C-9.30078125 12.1875 -9.30078125 12.1875 -9.3125 9 C-9.32925781 7.948125 -9.34601562 6.89625 -9.36328125 5.8125 C-9 3 -9 3 -7.671875 1.14453125 C-5.10475217 -0.61286826 -3.01987203 -0.32126298 0 0 Z " fill="#8FBEFA" transform="translate(10,18)"/>
<path opacity="0.32" d="M0 0 C3.0625 0.375 3.0625 0.375 4.7265625 2.0546875 C7.13394168 6.23592502 6.67940318 10.70213565 6.0625 15.375 C4.5625 18.0625 4.5625 18.0625 2.0625 19.375 C-0.69577865 19.67504176 -3.14514517 19.56115699 -5.9375 19.375 C-6.5975 23.005 -7.2575 26.635 -7.9375 30.375 C-9.5875 30.045 -11.2375 29.715 -12.9375 29.375 C-12.70889428 27.43485937 -12.45380819 25.49782586 -12.1875 23.5625 C-12.04828125 22.48355469 -11.9090625 21.40460937 -11.765625 20.29296875 C-10.9375 17.375 -10.9375 17.375 -8.984375 15.48828125 C-6.9375 14.375 -6.9375 14.375 -4.9375 14.375 C-4.96070313 13.53195313 -4.98390625 12.68890625 -5.0078125 11.8203125 C-5.03488281 10.17675781 -5.03488281 10.17675781 -5.0625 8.5 C-5.08570313 7.40945312 -5.10890625 6.31890625 -5.1328125 5.1953125 C-4.8561554 1.20038399 -3.93315054 0.50210432 0 0 Z " fill="#8FBEFA" transform="translate(40.9375,17.625)"/>
<path d="M0 0 C4.62 0 9.24 0 14 0 C14.33 1.32 14.66 2.64 15 4 C13.35 4.33 11.7 4.66 10 5 C10.01160156 6.13179687 10.02320313 7.26359375 10.03515625 8.4296875 C10.04453454 9.91145669 10.0536347 11.39322765 10.0625 12.875 C10.07087891 13.62136719 10.07925781 14.36773437 10.08789062 15.13671875 C10.11328125 20.7734375 10.11328125 20.7734375 9 23 C7.68 23 6.36 23 5 23 C3.40587716 19.81175432 3.89825265 16.37103338 3.9375 12.875 C3.94201172 12.12089844 3.94652344 11.36679687 3.95117188 10.58984375 C3.96296501 8.72652873 3.98090058 6.86325445 4 5 C2.35 4.67 0.7 4.34 -1 4 C-0.67 2.68 -0.34 1.36 0 0 Z " fill="#2859C5" transform="translate(17,25)"/>
<path d="M0 0 C3.125 0.25 3.125 0.25 5.0625 1.3125 C6.77287795 4.43142449 5.93013863 6.90557801 5.125 10.25 C2.26379744 11.68060128 0.28489415 11.63692581 -2.875 11.25 C-4.875 9.0625 -4.875 9.0625 -5.875 6.25 C-4.27176113 0.37145749 -4.27176113 0.37145749 0 0 Z " fill="#8FBFFA" transform="translate(40.875,4.75)"/>
<path d="M0 0 C2 2 2 2 2.25 5.5 C2 9 2 9 0 11 C-3.09771665 11.32954432 -5.17331023 11.45334601 -7.9375 9.9375 C-9.64787795 6.81857551 -8.80513863 4.34442199 -8 1 C-5.23749964 -0.38125018 -3.05268901 -0.19079306 0 0 Z " fill="#8FBFFA" transform="translate(10,5)"/>
</svg>
