<svg id="management" height="512" viewBox="0 0 32 32" width="512" xmlns="http://www.w3.org/2000/svg"><circle cx="7" cy="15" r="5"/><path opacity="0.32" d="m7.94 25.65-.94.94-.94-.94.53-3.67c.14.02.27.02.41.02s.27 0 .41-.02z"/><path d="m14 24.35v5.65c0 1.1-.9 2-2 2h-10c-1.1 0-2-.9-2-2v-5.65c0-1.78.74-3.39 1.92-4.54.74.79 1.66 1.4 2.7 1.77l-.61 4.28c-.04.31.06.62.28.85l2 2c.2.19.45.29.71.29s.51-.1.71-.29l2-2c.22-.23.32-.54.28-.85l-.61-4.28c1.04-.37 1.96-.98 2.7-1.77 1.18 1.15 1.92 2.76 1.92 4.54z"/><circle cx="19" cy="13" r="4"/><path opacity="0.32" d="m30.08 10.15h-1.25c-.21-.72-.5-1.42-.87-2.09l.89-.88c.36-.37.56-.85.56-1.36s-.2-.99-.56-1.36l-1.31-1.31c-.73-.72-1.99-.72-2.72 0l-.88.89c-.67-.37-1.37-.66-2.09-.87v-1.25c0-1.06-.87-1.92-1.93-1.92h-1.84c-1.06 0-1.93.86-1.93 1.92v1.25c-.72.21-1.42.5-2.09.87l-.88-.89c-.73-.72-1.99-.72-2.72 0l-1.31 1.31c-.36.37-.56.85-.56 1.36s.2.99.56 1.36l.89.88c-.09.17-.18.34-.2599.52 1.4399.62 2.62 1.71 3.37 3.08.61-2.67 3-4.66 5.85-4.66 3.31 0 6 2.69 6 6s-2.69 6-6 6c-2.16 0-4.05-1.14-5.1-2.85-.12.71-.34 1.38-.66 2l.24.23c1.23 1.2 2.04 2.72 2.37 4.36.1.03.2.06.3.09v1.25c0 1.06.87 1.92 1.93 1.92h1.84c1.06 0 1.93-.86 1.93-1.92v-1.25c.72-.21 1.42-.5 2.09-.87l.88.89c.73.72 1.99.72 2.72 0l1.31-1.31c.36-.37.56-.85.56-1.36s-.2-.99-.56-1.36l-.89-.88c.37-.67.66-1.37.87-2.09h1.25c1.06 0 1.92-.87 1.92-1.93v-1.84c0-1.06-.86-1.93-1.92-1.93z"/></svg>