<?xml version="1.0" encoding="UTF-8"?>
<svg version="1.1" xmlns="http://www.w3.org/2000/svg" width="84" height="84">
<path d="M0 0 C0.66 0 1.32 0 2 0 C2.66 0.99 3.32 1.98 4 3 C6.31753588 3.50843062 6.31753588 3.50843062 9.0078125 3.51171875 C9.99394531 3.54716797 10.98007812 3.58261719 11.99609375 3.61914062 C13.54490234 3.65297852 13.54490234 3.65297852 15.125 3.6875 C16.68541016 3.73874023 16.68541016 3.73874023 18.27734375 3.79101562 C20.85145507 3.87367058 23.42521829 3.94276155 26 4 C26 3.34 26 2.68 26 2 C26.99 2 27.98 2 29 2 C29 2.66 29 3.32 29 4 C29.53367187 4.20496094 30.06734375 4.40992188 30.6171875 4.62109375 C33.99937434 6.57832646 36.43037488 9.2596965 39.125 12.0625 C42.69553366 16.0044894 42.69553366 16.0044894 47 19 C49.46723426 35.76367389 49.46723426 35.76367389 45.98046875 41.078125 C39.81858028 46.09424504 39.81858028 46.09424504 35.96484375 45.89453125 C33.40924097 44.73104609 31.43173742 43.20214056 29.25 41.4375 C28.45078125 40.79683594 27.6515625 40.15617187 26.828125 39.49609375 C26.22484375 39.00238281 25.6215625 38.50867187 25 38 C25.33 37.01 25.66 36.02 26 35 C26.07056698 32.25917841 26.09336154 29.55153023 26.0625 26.8125 C26.041875 24.234375 26.02125 21.65625 26 19 C19.73 19 13.46 19 7 19 C8.32 17.02 9.64 15.04 11 13 C10.34 11.68 9.68 10.36 9 9 C9.24363281 9.54140625 9.48726562 10.0828125 9.73828125 10.640625 C10.14098033 14.27092712 8.33940801 15.90088887 6.1875 18.75 C5.45917969 19.73484375 4.73085938 20.7196875 3.98046875 21.734375 C3.32691406 22.48203125 2.67335937 23.2296875 2 24 C1.34 24 0.68 24 0 24 C0 23.34 0 22.68 0 22 C-5.61 22 -11.22 22 -17 22 C-17 28.6 -17 35.2 -17 42 C-18.98 40.35 -20.96 38.7 -23 37 C-27.16566899 38.76239842 -29.21525743 40.84604786 -33 44 C-33 37.07 -33 30.14 -33 23 C-33.66 23 -34.32 23 -35 23 C-33.66000502 19.993182 -32.20154709 18.00237391 -29.8125 15.75 C-26.50847881 12.54966148 -23.47586269 9.18813298 -20.48046875 5.69921875 C-19.36828828 4.42270555 -18.19716986 3.19716986 -17 2 C-14.0906442 1.85482256 -11.280054 1.81369204 -8.375 1.875 C-7.57320312 1.88402344 -6.77140625 1.89304688 -5.9453125 1.90234375 C-3.96341477 1.92593777 -1.98167019 1.96180935 0 2 C0 1.34 0 0.68 0 0 Z M-28 18 C-28 18.33 -28 18.66 -28 19 C-23.96185605 19.14886815 -19.92478395 19.25745089 -15.88452148 19.32958984 C-14.5118425 19.3596733 -13.13935437 19.40055334 -11.76733398 19.45263672 C-4.02111817 20.06713057 -4.02111817 20.06713057 3.04150391 17.63769531 C4.61656831 15.86401082 4.61656831 15.86401082 6 13 C4.81123506 9.61659208 3.91387555 7.1537341 1 5 C-12.79916724 1.89761111 -19.74311006 7.35370184 -28 18 Z M29 8 C29.01943817 12.20016908 29.071202 16.39833702 29.15258789 20.59765625 C29.17574459 22.02527467 29.19015824 23.45306336 29.19555664 24.88085938 C29.20486492 26.93727413 29.24588272 28.99102027 29.29296875 31.046875 C29.3086792 32.28276367 29.32438965 33.51865234 29.34057617 34.79199219 C29.73105213 38.17250072 29.73105213 38.17250072 32.4152832 40.43847656 C34.79129288 42.19307819 34.79129288 42.19307819 37.0625 41.9375 C39.50582061 40.75524809 41.06289186 39.96044679 43 38 C44.41561218 31.63953054 45.36673199 23.7373738 41.72265625 17.98291016 C38.29608994 14.04005497 34.31240503 10.92075241 30 8 C29.67 8 29.34 8 29 8 Z " fill="#919191" transform="translate(36,0)"/>
<path d="M0 0 C2.42881494 1.10138341 4.52872831 2.44063988 6.72265625 3.95703125 C7.521875 4.50488281 8.32109375 5.05273438 9.14453125 5.6171875 C9.7478125 6.03871094 10.35109375 6.46023437 10.97265625 6.89453125 C10.80894531 7.3946875 10.64523438 7.89484375 10.4765625 8.41015625 C9.78459845 11.82169996 9.86793546 15.18167887 9.91015625 18.64453125 C9.93078125 21.03703125 9.95140625 23.42953125 9.97265625 25.89453125 C16.24265625 25.89453125 22.51265625 25.89453125 28.97265625 25.89453125 C27.44789928 28.9440452 26.04380299 31.25852631 23.97265625 33.89453125 C24.47796875 34.38824219 24.98328125 34.88195312 25.50390625 35.390625 C26.4784375 36.35162109 26.4784375 36.35162109 27.47265625 37.33203125 C28.4471875 38.28916016 28.4471875 38.28916016 29.44140625 39.265625 C30.97265625 40.89453125 30.97265625 40.89453125 30.97265625 41.89453125 C30.38250732 41.9195874 29.7923584 41.94464355 29.18432617 41.97045898 C26.50938811 42.08653177 23.83479245 42.20920697 21.16015625 42.33203125 C20.23138672 42.37134766 19.30261719 42.41066406 18.34570312 42.45117188 C17.45302734 42.49306641 16.56035156 42.53496094 15.640625 42.578125 C14.81844482 42.61478271 13.99626465 42.65144043 13.14916992 42.68920898 C10.79360447 42.82880897 10.79360447 42.82880897 7.97265625 43.89453125 C7.10382812 43.08628906 6.235 42.27804688 5.33984375 41.4453125 C4.17585454 40.36580638 3.0117879 39.28638375 1.84765625 38.20703125 C1.27789062 37.67658203 0.708125 37.14613281 0.12109375 36.59960938 C-0.44609375 36.07431641 -1.01328125 35.54902344 -1.59765625 35.0078125 C-2.4477124 34.21080933 -2.4477124 34.21080933 -3.31494141 33.39770508 C-4.98023918 31.87508319 -4.98023918 31.87508319 -6.78271484 30.6940918 C-9.11407853 29.07951384 -10.82747907 27.7403611 -11.49560547 24.9128418 C-11.61761431 22.60555839 -11.55305923 20.38720516 -11.40234375 18.08203125 C-11.36173828 16.89963867 -11.36173828 16.89963867 -11.3203125 15.69335938 C-11.24998051 13.75922968 -11.14236833 11.82651821 -11.02734375 9.89453125 C-11.68734375 9.89453125 -12.34734375 9.89453125 -13.02734375 9.89453125 C-11.78671295 6.17263886 -10.37906975 5.38682317 -7.21484375 3.14453125 C-6.34214844 2.5103125 -5.46945313 1.87609375 -4.5703125 1.22265625 C-2.02734375 -0.10546875 -2.02734375 -0.10546875 0 0 Z M-4.64453125 5.36328125 C-7.96682118 8.8925335 -8.10187683 11.66827998 -8.15234375 16.39453125 C-8.16257568 17.19101074 -8.17280762 17.98749023 -8.18334961 18.80810547 C-7.90355535 24.41642603 -6.41728757 27.52391205 -2.41552734 31.44335938 C1.8851633 35.66107597 1.8851633 35.66107597 6.97265625 37.89453125 C6.95321808 33.69436217 6.90145425 29.49619423 6.82006836 25.296875 C6.79691166 23.86925658 6.78249801 22.44146789 6.77709961 21.01367188 C6.76779133 18.95725712 6.72677353 16.90351098 6.6796875 14.84765625 C6.66397705 13.61176758 6.6482666 12.37587891 6.63208008 11.10253906 C6.23859816 7.73356087 6.23859816 7.73356087 3.6159668 5.45996094 C0.14335625 3.40340059 -1.12761623 3.38960954 -4.64453125 5.36328125 Z " fill="#9B9B9B" transform="translate(13.02734375,39.10546875)"/>
<path d="M0 0 C0.66 0 1.32 0 2 0 C2 6.93 2 13.86 2 21 C2.66 21 3.32 21 4 21 C2.42115092 24.93327314 -0.30762566 27.50181338 -3.3125 30.375 C-4.25738281 31.29023437 -5.20226562 32.20546875 -6.17578125 33.1484375 C-6.65402344 33.60887451 -7.13226563 34.06931152 -7.625 34.54370117 C-9.26400487 36.20753706 -9.26400487 36.20753706 -11.26953125 39.26171875 C-15.06219121 43.06523038 -18.15475813 43.23970256 -23.375 43.4375 C-24.22610352 43.47625244 -25.07720703 43.51500488 -25.95410156 43.55493164 C-29.9803884 43.56701206 -32.36038747 43.39469203 -35.8359375 41.25 C-38.59927939 37.91143184 -39.87252607 35.24924455 -40.3125 30.9375 C-38.48618305 26.85002873 -36.10219833 23.24208526 -33 20 C-32.34 20 -31.68 20 -31 20 C-31 20.66 -31 21.32 -31 22 C-22.585 21.505 -22.585 21.505 -14 21 C-14 14.73 -14 8.46 -14 2 C-12.35 3.32 -10.7 4.64 -9 6 C-6.9172483 6.23075102 -6.9172483 6.23075102 -5 5 C-3.31337542 3.35353315 -1.64488294 1.68816933 0 0 Z M-35.42578125 28.0234375 C-35.94527344 29.00570312 -36.46476562 29.98796875 -37 31 C-35.79618552 33.49361571 -34.54571278 35.68143083 -33 38 C-26.63794374 39.22553294 -18.80436248 40.21094109 -12.97851562 36.82519531 C-9.08042954 33.69968421 -5.94211772 30.02089422 -3 26 C-3 25.67 -3 25.34 -3 25 C-7.03814395 24.85113185 -11.07521605 24.74254911 -15.11547852 24.67041016 C-16.4881575 24.6403267 -17.86064563 24.59944666 -19.23266602 24.54736328 C-28.20859137 23.73869997 -28.20859137 23.73869997 -35.42578125 28.0234375 Z " fill="#939393" transform="translate(80,41)"/>
<path d="M0 0 C4.95 0 9.9 0 15 0 C15 10.56 15 21.12 15 32 C10.05 32 5.1 32 0 32 C0 21.44 0 10.88 0 0 Z " fill="#939393" transform="translate(28,27)"/>
<path d="M0 0 C3.63 0 7.26 0 11 0 C13.40829792 2.40829792 13.25602579 2.99283556 13.265625 6.28125 C13.26820312 7.12300781 13.27078125 7.96476562 13.2734375 8.83203125 C13.26570313 9.71246094 13.25796875 10.59289063 13.25 11.5 C13.25773437 12.38042969 13.26546875 13.26085938 13.2734375 14.16796875 C13.27085938 15.00972656 13.26828125 15.85148437 13.265625 16.71875 C13.26336914 17.49154297 13.26111328 18.26433594 13.25878906 19.06054688 C13 21 13 21 11 23 C7.37 23 3.74 23 0 23 C0 15.41 0 7.82 0 0 Z " fill="#888888" transform="translate(44,28)"/>
<path d="M0 0 C0.33 0.66 0.66 1.32 1 2 C1.92337158 1.98952637 2.84674316 1.97905273 3.7980957 1.96826172 C7.22536718 1.9341681 10.65245833 1.90909554 14.07983398 1.89013672 C15.56293583 1.88008179 17.04601788 1.86643596 18.52905273 1.84912109 C20.66134531 1.82484994 22.79337569 1.81351201 24.92578125 1.8046875 C26.85031128 1.78897705 26.85031128 1.78897705 28.8137207 1.77294922 C32 2 32 2 35 4 C34.33613281 4.65226562 33.67226562 5.30453125 32.98828125 5.9765625 C32.10527344 6.85054688 31.22226563 7.72453125 30.3125 8.625 C29.44238281 9.48351562 28.57226562 10.34203125 27.67578125 11.2265625 C24.90867461 13.94528267 24.90867461 13.94528267 22.75390625 17.24609375 C18.9426745 21.0573255 15.86363167 21.23900576 10.625 21.4375 C9.77389648 21.47625244 8.92279297 21.51500488 8.04589844 21.55493164 C4.0196116 21.56701206 1.63961253 21.39469203 -1.8359375 19.25 C-4.65391648 15.84542132 -5.90406282 13.22319904 -6.25 8.8125 C-4.65325267 5.21981851 -2.67415711 2.87986151 0 0 Z M-1.42578125 6.0234375 C-1.94527344 7.00570312 -2.46476562 7.98796875 -3 9 C-1.79618552 11.49361571 -0.54571278 13.68143083 1 16 C7.36205626 17.22553294 15.19563752 18.21094109 21.02148438 14.82519531 C24.91957046 11.69968421 28.05788228 8.02089422 31 4 C31 3.67 31 3.34 31 3 C26.96185605 2.85113185 22.92478395 2.74254911 18.88452148 2.67041016 C17.5118425 2.6403267 16.13935437 2.59944666 14.76733398 2.54736328 C5.79140863 1.73869997 5.79140863 1.73869997 -1.42578125 6.0234375 Z " fill="#ADADAD" transform="translate(46,63)"/>
<path d="M0 0 C1.65059825 1.40988601 3.29562228 2.82675012 4.9140625 4.2734375 C6.93871596 6.04466693 6.93871596 6.04466693 9.2109375 7.2890625 C12.45424072 9.38491548 14.47846654 11.24758049 15.60742188 15.04101562 C16.72743561 20.63178956 17.27749156 26.39671955 16 32 C13.33915118 35.95832938 10.47291377 38.31513562 6 40 C2.54721734 39.77155502 0.42327706 38.03156703 -2.25 35.9375 C-2.95640625 35.38964844 -3.6628125 34.84179688 -4.390625 34.27734375 C-4.92171875 33.85582031 -5.4528125 33.43429688 -6 33 C-5.34 32.34 -4.68 31.68 -4 31 C-3.62826984 28.3817233 -3.62826984 28.3817233 -3.5859375 25.3359375 C-3.54726562 24.21445312 -3.50859375 23.09296875 -3.46875 21.9375 C-3.4378125 20.761875 -3.406875 19.58625 -3.375 18.375 C-3.33632812 17.19164063 -3.29765625 16.00828125 -3.2578125 14.7890625 C-3.16331155 11.85953309 -3.07775442 8.93001403 -3 6 C-2.67 6 -2.34 6 -2 6 C-1.9906543 6.77190674 -1.98130859 7.54381348 -1.97167969 8.33911133 C-1.91805294 11.83089582 -1.83438983 15.32132931 -1.75 18.8125 C-1.73582031 20.02744141 -1.72164063 21.24238281 -1.70703125 22.49414062 C-1.67480469 23.65751953 -1.64257812 24.82089844 -1.609375 26.01953125 C-1.58842773 27.09307861 -1.56748047 28.16662598 -1.54589844 29.27270508 C-1.24205528 32.11277933 -1.24205528 32.11277933 0.90917969 33.88549805 C2.91133222 35.19811473 2.91133222 35.19811473 5.0625 34.8125 C7.26281815 33.96184066 7.26281815 33.96184066 10 32 C11.19337803 25.74617743 12.31682538 17.74168723 8.80908203 12.07666016 C5.65871982 8.46049365 1.95966263 5.67512921 -2 3 C-1.34 2.67 -0.68 2.34 0 2 C0 1.34 0 0.68 0 0 Z " fill="#C4C4C4" transform="translate(68,6)"/>
<path d="M0 0 C0.66 0 1.32 0 2 0 C5.02696221 3.43055717 7.5092742 7.17495681 10 11 C8.22054913 15.04420651 5.60470327 18.46078487 3 22 C2.505 21.01 2.505 21.01 2 20 C-8.23 20 -18.46 20 -29 20 C-29 19.34 -29 18.68 -29 18 C-29.66 17.67 -30.32 17.34 -31 17 C-20.79056191 3.15502986 -20.79056191 3.15502986 -14.66845703 1.28955078 C-9.70118191 0.69421049 -4.91704172 1.19636727 0 2 C0 1.34 0 0.68 0 0 Z M-28 18 C-28 18.33 -28 18.66 -28 19 C-23.96185605 19.14886815 -19.92478395 19.25745089 -15.88452148 19.32958984 C-14.5118425 19.3596733 -13.13935437 19.40055334 -11.76733398 19.45263672 C-4.02111817 20.06713057 -4.02111817 20.06713057 3.04150391 17.63769531 C4.61656831 15.86401082 4.61656831 15.86401082 6 13 C4.81123506 9.61659208 3.91387555 7.1537341 1 5 C-12.79916724 1.89761111 -19.74311006 7.35370184 -28 18 Z " fill="#B3B3B3" transform="translate(36,0)"/>
<path d="M0 0 C2.87484228 1.34321384 4.71928384 3.55754447 6.84765625 5.86328125 C4.97265625 6.48828125 4.97265625 6.48828125 2.84765625 6.86328125 C2.18765625 6.20328125 1.52765625 5.54328125 0.84765625 4.86328125 C-2.16540332 5.25206313 -3.54919686 6.12784999 -6.15234375 7.86328125 C-7.14716877 13.75385122 -7.5759347 20.00644963 -6.15234375 25.86328125 C-3.81660615 29.08358265 -1.60335877 30.99070843 1.66015625 33.234375 C2.38203125 33.77191406 3.10390625 34.30945313 3.84765625 34.86328125 C3.84765625 35.85328125 3.84765625 36.84328125 3.84765625 37.86328125 C4.17765625 38.52328125 4.50765625 39.18328125 4.84765625 39.86328125 C0.97444532 38.28697448 -1.39969538 35.78580456 -4.27734375 32.80078125 C-7.3934014 29.39874642 -7.3934014 29.39874642 -11.15234375 26.86328125 C-11.15234375 21.25328125 -11.15234375 15.64328125 -11.15234375 9.86328125 C-11.81234375 9.86328125 -12.47234375 9.86328125 -13.15234375 9.86328125 C-11.91171295 6.14138886 -10.50406975 5.35557317 -7.33984375 3.11328125 C-6.46714844 2.4790625 -5.59445313 1.84484375 -4.6953125 1.19140625 C-2.15234375 -0.13671875 -2.15234375 -0.13671875 0 0 Z " fill="#B3B3B3" transform="translate(13.15234375,39.13671875)"/>
<path d="M0 0 C0.33 0.66 0.66 1.32 1 2 C11.23 2 21.46 2 32 2 C32 2.33 32 2.66 32 3 C31.1121582 3.00410889 30.22431641 3.00821777 29.30957031 3.01245117 C26.00634799 3.03946653 22.70497661 3.08858044 19.40234375 3.15258789 C17.97472533 3.17574459 16.54693664 3.19015824 15.11914062 3.19555664 C13.06272587 3.20486492 11.00897973 3.24588272 8.953125 3.29296875 C7.71723633 3.3086792 6.48134766 3.32438965 5.20800781 3.34057617 C1.80250723 3.72379432 1.80250723 3.72379432 -0.43457031 6.54418945 C-0.95116211 7.35460693 -1.46775391 8.16502441 -2 9 C-1.690625 9.61875 -1.38125 10.2375 -1.0625 10.875 C-0.375 12.25 0.3125 13.625 1 15 C6.94 15.33 12.88 15.66 19 16 C19 16.33 19 16.66 19 17 C17.79601562 17.04898438 16.59203125 17.09796875 15.3515625 17.1484375 C13.77601802 17.22346343 12.20049834 17.29901133 10.625 17.375 C9.8309375 17.4059375 9.036875 17.436875 8.21875 17.46875 C3.63332625 17.51816421 3.63332625 17.51816421 0 20 C-5.92606423 13.23226288 -5.92606423 13.23226288 -6.1875 8.875 C-4.66563887 5.19049411 -2.70965178 2.91808653 0 0 Z " fill="#CACACA" transform="translate(46,63)"/>
<path d="M0 0 C0.33 0 0.66 0 1 0 C1.0093457 0.77190674 1.01869141 1.54381348 1.02832031 2.33911133 C1.08194706 5.83089582 1.16561017 9.32132931 1.25 12.8125 C1.26417969 14.02744141 1.27835937 15.24238281 1.29296875 16.49414062 C1.32519531 17.65751953 1.35742188 18.82089844 1.390625 20.01953125 C1.41157227 21.09307861 1.43251953 22.16662598 1.45410156 23.27270508 C1.75794472 26.11277933 1.75794472 26.11277933 3.90917969 27.88549805 C5.91133222 29.19811473 5.91133222 29.19811473 8.0625 28.8125 C10.26281815 27.96184066 10.26281815 27.96184066 13 26 C13.38384509 23.06402461 13.603843 20.31972627 13.6875 17.375 C13.72166016 16.57320312 13.75582031 15.77140625 13.79101562 14.9453125 C13.87356878 12.96403682 13.93845916 10.98203963 14 9 C14.33 9 14.66 9 15 9 C15 14.94 15 20.88 15 27 C15.66 27.33 16.32 27.66 17 28 C15.76265016 29.03613033 14.50955363 30.05347802 13.25 31.0625 C12.20585938 31.91521484 12.20585938 31.91521484 11.140625 32.78515625 C9 34 9 34 7 33.875 C4.62623171 32.83647637 2.7890165 31.5347296 0.75 29.9375 C0.04359375 29.38964844 -0.6628125 28.84179688 -1.390625 28.27734375 C-1.92171875 27.85582031 -2.4528125 27.43429688 -3 27 C-2.34 26.34 -1.68 25.68 -1 25 C-0.62826984 22.3817233 -0.62826984 22.3817233 -0.5859375 19.3359375 C-0.54726562 18.21445312 -0.50859375 17.09296875 -0.46875 15.9375 C-0.4378125 14.761875 -0.406875 13.58625 -0.375 12.375 C-0.33632812 11.19164062 -0.29765625 10.00828125 -0.2578125 8.7890625 C-0.16331155 5.85953309 -0.07775442 2.93001403 0 0 Z " fill="#C9C9C9" transform="translate(65,12)"/>
<path d="M0 0 C2.93183499 1.29769745 4.75760086 3.51604676 6.90625 5.84375 C5.03125 6.46875 5.03125 6.46875 2.90625 6.84375 C2.24625 6.18375 1.58625 5.52375 0.90625 4.84375 C-2.10680957 5.23253188 -3.49060311 6.10831874 -6.09375 7.84375 C-6.47759509 10.77972539 -6.697593 13.52402373 -6.78125 16.46875 C-6.81541016 17.27054688 -6.84957031 18.07234375 -6.88476562 18.8984375 C-6.96731878 20.87971318 -7.03220916 22.86171037 -7.09375 24.84375 C-7.42375 24.84375 -7.75375 24.84375 -8.09375 24.84375 C-8.09375 18.90375 -8.09375 12.96375 -8.09375 6.84375 C-8.75375 6.51375 -9.41375 6.18375 -10.09375 5.84375 C-8.85640016 4.80761967 -7.60330363 3.79027198 -6.34375 2.78125 C-5.64765625 2.21277344 -4.9515625 1.64429688 -4.234375 1.05859375 C-2.09375 -0.15625 -2.09375 -0.15625 0 0 Z " fill="#C9C9C9" transform="translate(13.09375,39.15625)"/>
<path d="M0 0 C5.94 0 11.88 0 18 0 C18 0.99 18 1.98 18 3 C8.595 3.495 8.595 3.495 -1 4 C-0.67 2.68 -0.34 1.36 0 0 Z " fill="#A6A6A6" transform="translate(48,80)"/>
<path d="M0 0 C3.53600465 1.91135386 5.78972846 3.62642766 8 7 C6.79618552 9.49361571 5.54571278 11.68143083 4 14 C3.01 13.67 2.02 13.34 1 13 C1.391875 12.0925 1.78375 11.185 2.1875 10.25 C2.455625 9.1775 2.72375 8.105 3 7 C1.69655172 4.78963709 1.69655172 4.78963709 0 3 C0 2.01 0 1.02 0 0 Z " fill="#A9A9A9" transform="translate(38,4)"/>
<path d="M0 0 C1.485 0.495 1.485 0.495 3 1 C2.34 2.32 1.68 3.64 1 5 C0.67 4.34 0.34 3.68 0 3 C-10.23 3 -20.46 3 -31 3 C-31 2.67 -31 2.34 -31 2 C-30.09644775 1.97494385 -29.19289551 1.9498877 -28.26196289 1.92407227 C-24.9203572 1.82912683 -21.57893748 1.72988379 -18.23754883 1.62768555 C-16.7893576 1.5842837 -15.34111346 1.54261256 -13.89282227 1.50268555 C-11.81510441 1.44510938 -9.73765427 1.38137972 -7.66015625 1.31640625 C-6.40855713 1.27974854 -5.15695801 1.24309082 -3.86743164 1.20532227 C-1.10369496 1.32196094 -1.10369496 1.32196094 0 0 Z " fill="#CFCFCF" transform="translate(38,17)"/>
<path d="M0 0 C0.33 0 0.66 0 1 0 C1.33 6.27 1.66 12.54 2 19 C1.01 19 0.02 19 -1 19 C-1.02683987 16.02077407 -1.04676037 13.04178705 -1.0625 10.0625 C-1.07087891 9.21236328 -1.07925781 8.36222656 -1.08789062 7.48632812 C-1.09111328 6.67744141 -1.09433594 5.86855469 -1.09765625 5.03515625 C-1.10289307 4.2862915 -1.10812988 3.53742676 -1.11352539 2.76586914 C-1 1 -1 1 0 0 Z " fill="#8C8C8C" transform="translate(81,20)"/>
<path d="M0 0 C0.33 0.99 0.66 1.98 1 3 C-1.64 5.64 -4.28 8.28 -7 11 C-7.99 10.34 -8.98 9.68 -10 9 C-8.90344712 7.68113228 -7.79746577 6.37009943 -6.6875 5.0625 C-6.07261719 4.33160156 -5.45773438 3.60070312 -4.82421875 2.84765625 C-3 1 -3 1 0 0 Z " fill="#ABABAB" transform="translate(15,8)"/>
<path d="M0 0 C1.14926266 0.95421808 2.29430541 1.91352045 3.4375 2.875 C4.07558594 3.40867187 4.71367188 3.94234375 5.37109375 4.4921875 C7 6 7 6 8 8 C7.01 8.33 6.02 8.66 5 9 C3.17578125 7.78515625 3.17578125 7.78515625 1.3125 6.0625 C0.68988281 5.49660156 0.06726563 4.93070313 -0.57421875 4.34765625 C-1.04472656 3.90292969 -1.51523438 3.45820313 -2 3 C-1.34 2.67 -0.68 2.34 0 2 C0 1.34 0 0.68 0 0 Z " fill="#BBBBBB" transform="translate(68,6)"/>
<path d="M0 0 C1.32 0.66 2.64 1.32 4 2 C1.03 4.475 1.03 4.475 -2 7 C-2.99 6.34 -3.98 5.68 -5 5 C-3.35 3.35 -1.7 1.7 0 0 Z " fill="#C1C1C1" transform="translate(18,3)"/>
<path d="M0 0 C2.375 0.3125 2.375 0.3125 5 1 C5.66 1.99 6.32 2.98 7 4 C5.1875 4.6875 5.1875 4.6875 3 5 C1.25 3.6875 1.25 3.6875 0 2 C0 1.34 0 0.68 0 0 Z " fill="#AEAEAE" transform="translate(13,41)"/>
</svg>
